<svg width="91" height="32" viewBox="0 0 91 32" fill="none" xmlns="http://www.w3.org/2000/svg">
<path fill-rule="evenodd" clip-rule="evenodd" d="M9.40355 0.096C11.1102 0.0177745 11.6542 0 16 0C20.3466 0 20.8897 0.0186618 22.5955 0.096C24.2995 0.173338 25.4631 0.444451 26.4809 0.84C27.5484 1.24191 28.5153 1.87162 29.3146 2.68534C30.1284 3.48451 30.7583 4.45158 31.16 5.51911C31.5555 6.53689 31.8257 7.70045 31.904 9.40355C31.9823 11.1102 32 11.6542 32 16C32 20.3457 31.9814 20.8897 31.904 22.5965C31.8266 24.2995 31.5555 25.4631 31.16 26.4809C30.7511 27.5325 30.2035 28.4257 29.3146 29.3146C28.5155 30.1284 27.5484 30.7583 26.4809 31.16C25.4631 31.5555 24.2995 31.8257 22.5965 31.904C20.8897 31.9823 20.3457 32 16 32C11.6542 32 11.1102 31.9814 9.40355 31.904C7.70045 31.8266 6.53689 31.5555 5.51911 31.16C4.46755 30.7511 3.57423 30.2035 2.68534 29.3146C1.87148 28.5155 1.24172 27.5484 0.84 26.4809C0.444451 25.4631 0.174225 24.2995 0.096 22.5965C0.0177745 20.8897 0 20.3466 0 16C0 11.6533 0.0186618 11.1102 0.096 9.40445C0.173338 7.70045 0.444451 6.53689 0.84 5.51911C1.24191 4.45165 1.87162 3.48463 2.68534 2.68534C3.48449 1.87148 4.45156 1.24172 5.51911 0.84C6.53689 0.444451 7.70045 0.174225 9.40355 0.096ZM22.4657 2.976C20.7786 2.89955 20.272 2.88266 16 2.88266C11.728 2.88266 11.2213 2.89955 9.53423 2.976C7.97423 3.04711 7.12711 3.30755 6.56355 3.52711C5.81689 3.81689 5.28355 4.16355 4.72355 4.72355C4.16445 5.28355 3.81689 5.81689 3.52711 6.56355C3.30755 7.12711 3.04711 7.97423 2.976 9.53423C2.89955 11.2213 2.88266 11.728 2.88266 16C2.88266 20.272 2.89955 20.7786 2.976 22.4657C3.04711 24.0257 3.30755 24.8729 3.52711 25.4365C3.78343 26.1315 4.19228 26.7601 4.72355 27.2765C5.23977 27.8077 5.86852 28.2166 6.56355 28.4729C7.12711 28.6925 7.97423 28.9529 9.53423 29.024C11.2213 29.1005 11.7271 29.1174 16 29.1174C20.2729 29.1174 20.7786 29.1005 22.4657 29.024C24.0257 28.9529 24.8729 28.6925 25.4365 28.4729C26.1831 28.1831 26.7165 27.8365 27.2765 27.2765C27.8077 26.7603 28.2166 26.1315 28.4729 25.4365C28.6925 24.8729 28.9529 24.0257 29.024 22.4657C29.1005 20.7786 29.1174 20.272 29.1174 16C29.1174 11.728 29.1005 11.2213 29.024 9.53423C28.9529 7.97423 28.6925 7.12711 28.4729 6.56355C28.1831 5.81689 27.8365 5.28355 27.2765 4.72355C26.7165 4.16445 26.1831 3.81689 25.4365 3.52711C24.8729 3.30755 24.0257 3.04711 22.4657 2.976ZM13.9571 20.9322C14.6048 21.2006 15.2989 21.3386 16 21.3386C17.416 21.3386 18.7738 20.7761 19.775 19.775C20.7763 18.7738 21.3388 17.4159 21.3388 16C21.3388 14.5841 20.7763 13.2262 19.775 12.225C18.7738 11.2238 17.416 10.6613 16 10.6613C15.2989 10.6613 14.6048 10.7994 13.9571 11.0677C13.3092 11.336 12.7208 11.7292 12.225 12.225C11.7293 12.7207 11.336 13.3092 11.0678 13.9569C10.7995 14.6047 10.6614 15.2989 10.6614 16C10.6614 16.7011 10.7995 17.3953 11.0678 18.0431C11.336 18.6908 11.7293 19.2793 12.225 19.775C12.7208 20.2707 13.3092 20.664 13.9571 20.9322ZM10.1848 10.1847C11.7271 8.64244 13.8189 7.77599 16 7.77599C18.1812 7.77599 20.273 8.64244 21.8153 10.1847C23.3575 11.727 24.224 13.8189 24.224 16C24.224 18.1811 23.3575 20.2729 21.8153 21.8153C20.273 23.3575 18.1812 24.224 16 24.224C13.8189 24.224 11.7271 23.3575 10.1848 21.8153C8.6425 20.2729 7.77604 18.1811 7.77604 16C7.77604 13.8189 8.6425 11.727 10.1848 10.1847ZM26.0476 9.00128C26.4121 8.6367 26.6169 8.14224 26.6169 7.62666C26.6169 7.11107 26.4121 6.61661 26.0476 6.25204C25.6829 5.88748 25.1885 5.68266 24.6729 5.68266C24.1574 5.68266 23.6628 5.88748 23.2983 6.25204C22.9337 6.61661 22.7289 7.11107 22.7289 7.62666C22.7289 8.14224 22.9337 8.6367 23.2983 9.00128C23.6628 9.36585 24.1574 9.57066 24.6729 9.57066C25.1885 9.57066 25.6829 9.36585 26.0476 9.00128Z" fill="#0B81BE"/>
<path d="M86.2627 27.2693H81.524V19.844C81.524 18.0733 81.488 15.7947 79.0547 15.7947C76.584 15.7947 76.2067 17.7213 76.2067 19.7133V27.2693H71.468V12H76.02V14.0813H76.0813C76.7173 12.8813 78.264 11.6147 80.5747 11.6147C85.376 11.6147 86.264 14.7747 86.264 18.888L86.2627 27.2693ZM66.116 9.91067C65.7545 9.91084 65.3965 9.83973 65.0625 9.70139C64.7286 9.56305 64.4251 9.3602 64.1697 9.10446C63.9142 8.84872 63.7116 8.54511 63.5736 8.21099C63.4356 7.87688 63.3648 7.51883 63.3653 7.15733C63.3656 6.61304 63.5273 6.08105 63.8299 5.62863C64.1325 5.17621 64.5625 4.82369 65.0654 4.61564C65.5684 4.40759 66.1217 4.35336 66.6555 4.45981C67.1893 4.56625 67.6795 4.82859 68.0642 5.21365C68.4489 5.59871 68.7108 6.0892 68.8167 6.62309C68.9226 7.15697 68.8679 7.71028 68.6593 8.21304C68.4508 8.71581 68.0979 9.14544 67.6452 9.44761C67.1924 9.74979 66.6603 9.91093 66.116 9.91067ZM68.492 27.2693H63.74V12H68.492V27.2693ZM88.6333 0H61.3613C60.056 0 59 1.032 59 2.30533V29.6947C59 30.9693 60.056 32 61.3613 32H88.6293C89.9333 32 91 30.9693 91 29.6947V2.30533C91 1.032 89.9333 0 88.6293 0H88.6333Z" fill="#0B81BE"/>
</svg>
